# xmcd
#
# Track frame offsets:
#	150
#	10961
#	23818
#	36812
#	47577
#	59177
#	71885
#	83750
#	95429
#	111106
#	123007
#	133681
#	144408
#	156206
#	166956
#	181646
#	194753
#	207482
#	222666
#	238483
#	253990
#	271396
#	286466
#	300903
#	320466
#	336379
#
# Disc length: 4696 seconds
# Revision: 0
# Processed by: cddbd v1.5.2PL0 Copyright (c) Steve Scherf et al.
# Submitted via: dBpowerAMP V12.0
#
DISCID=9112561a
DTITLE=Curtis MayField - The Music of Curtis MayField
DYEAR=2004
DGENRE=Rhythmic Soul
TTITLE0=Gypsy Woman
TTITLE1=The Monkey Time
TTITLE2=It's All Right
TTITLE3=Um,Um,Um,Um,Um,Um
TTITLE4=Talking About My Baby
TTITLE5=I'm So Proud
TTITLE6=Keep On Pushing
TTITLE7=You Must Believe Me
TTITLE8=Amen
TTITLE9=People Get Ready
TTITLE10=Woman's Got Soul
TTITLE11=Meeting Over Yonder
TTITLE12=You've Been Cheatin'
TTITLE13=We're A Winner
TTITLE14=I Loved And I Lost
TTITLE15=Fool For You
TTITLE16=This Is My Country
TTITLE17=Choice of Colors
TTITLE18=Check Out Your Mind
TTITLE19=(Don't Worry) If There's A Hell Below We're All Gonna Go
TTITLE20=Move On Up
TTITLE21=Freddie's Dead
TTITLE22=SuperFly
TTITLE23=On And On
TTITLE24=Let's Do It Again
TTITLE25=Something He Can Feel
EXTD=
EXTT0=
EXTT1=
EXTT2=
EXTT3=
EXTT4=
EXTT5=
EXTT6=
EXTT7=
EXTT8=
EXTT9=
EXTT10=
EXTT11=
EXTT12=
EXTT13=
EXTT14=
EXTT15=
EXTT16=
EXTT17=
EXTT18=
EXTT19=
EXTT20=
EXTT21=
EXTT22=
EXTT23=
EXTT24=
EXTT25=
PLAYORDER=
